<svg xmlns="http://www.w3.org/2000/svg" xmlns:xlink="http://www.w3.org/1999/xlink" viewBox="0 0 339.01 68.38"><defs><style>.cls-1{opacity:0.25;}.cls-2{fill:#17539b;}.cls-3{fill:#fcfdfd;}.cls-4{fill:url(#linear-gradient);}.cls-5{fill:#047bab;}.cls-6{fill:#fefefe;}.cls-7{fill:url(#linear-gradient-2);}.cls-8{fill:url(#linear-gradient-3);}.cls-9{fill:url(#linear-gradient-4);}.cls-10{fill:url(#linear-gradient-5);}.cls-11{fill:url(#linear-gradient-6);}.cls-12{fill:url(#linear-gradient-7);}.cls-13{fill:url(#linear-gradient-8);}.cls-14{fill:url(#linear-gradient-9);}.cls-15{fill:url(#linear-gradient-10);}.cls-16{fill:url(#linear-gradient-11);}.cls-17{fill:#094f8d;}.cls-18{opacity:0.49;}.cls-19{fill:url(#linear-gradient-12);}.cls-20{fill:url(#linear-gradient-13);}.cls-21{fill:url(#linear-gradient-14);}.cls-22{fill:url(#linear-gradient-15);}.cls-23{fill:url(#linear-gradient-16);}.cls-24{fill:url(#linear-gradient-17);}.cls-25{fill:url(#linear-gradient-18);}.cls-26{fill:url(#linear-gradient-19);}.cls-27{fill:url(#linear-gradient-20);}.cls-28{fill:url(#linear-gradient-21);}.cls-29{fill:url(#linear-gradient-22);}.cls-30{fill:url(#linear-gradient-23);}.cls-31{fill:url(#linear-gradient-24);}.cls-32{fill:url(#linear-gradient-25);}.cls-33{fill:url(#linear-gradient-26);}.cls-34{fill:url(#linear-gradient-27);}.cls-35{fill:url(#linear-gradient-28);}.cls-36{fill:url(#linear-gradient-29);}.cls-37{fill:url(#linear-gradient-30);}.cls-38{fill:url(#linear-gradient-31);}.cls-39{fill:url(#linear-gradient-32);}.cls-40{fill:url(#linear-gradient-33);}.cls-41{fill:url(#linear-gradient-34);}.cls-42{fill:url(#linear-gradient-35);}.cls-43{fill:url(#linear-gradient-36);}.cls-44{fill:url(#linear-gradient-37);}.cls-45{fill:url(#linear-gradient-38);}.cls-46{fill:url(#linear-gradient-39);}.cls-47{fill:url(#linear-gradient-40);}.cls-48{fill:url(#linear-gradient-41);}.cls-49{fill:url(#linear-gradient-42);}.cls-50{fill:url(#linear-gradient-43);}.cls-51{fill:url(#linear-gradient-44);}.cls-52{fill:url(#linear-gradient-45);}.cls-53{fill:url(#linear-gradient-46);}.cls-54{fill:url(#linear-gradient-47);}.cls-55{fill:url(#linear-gradient-48);}.cls-56{fill:url(#linear-gradient-49);}</style><linearGradient id="linear-gradient" x1="38.73" y1="33.1" x2="62.52" y2="33.1" gradientUnits="userSpaceOnUse"><stop offset="0" stop-color="#2e68a0"/><stop offset="1" stop-color="#244080"/></linearGradient><linearGradient id="linear-gradient-2" x1="44.86" y1="20.73" x2="54.7" y2="20.73" gradientUnits="userSpaceOnUse"><stop offset="0" stop-color="#f15a24"/><stop offset="0.19" stop-color="#f26327"/><stop offset="0.51" stop-color="#f57d2d"/><stop offset="0.91" stop-color="#faa638"/><stop offset="0.99" stop-color="#fbb03b"/></linearGradient><linearGradient id="linear-gradient-3" x1="44.16" y1="19.13" x2="59.72" y2="19.13" xlink:href="#linear-gradient-2"/><linearGradient id="linear-gradient-4" x1="-3008.25" y1="33.24" x2="-2984.47" y2="33.24" gradientTransform="matrix(-1, 0, 0, 1, -2921.24, 0)" xlink:href="#linear-gradient-2"/><linearGradient id="linear-gradient-5" x1="-3002.12" y1="20.87" x2="-2992.29" y2="20.87" gradientTransform="matrix(-1, 0, 0, 1, -2921.24, 0)" xlink:href="#linear-gradient"/><linearGradient id="linear-gradient-6" x1="-3002.82" y1="19.27" x2="-2987.27" y2="19.27" gradientTransform="matrix(-1, 0, 0, 1, -2921.24, 0)" xlink:href="#linear-gradient"/><linearGradient id="linear-gradient-7" x1="62.87" y1="68.19" x2="62.87" y2="53.42" xlink:href="#linear-gradient"/><linearGradient id="linear-gradient-8" x1="76.07" y1="59.24" x2="76.07" y2="54.38" xlink:href="#linear-gradient"/><linearGradient id="linear-gradient-9" x1="48.62" y1="58.77" x2="48.62" y2="54.4" xlink:href="#linear-gradient"/><linearGradient id="linear-gradient-10" x1="48.18" y1="68.38" x2="48.18" y2="62.82" xlink:href="#linear-gradient"/><linearGradient id="linear-gradient-11" x1="77.67" y1="68.05" x2="77.67" y2="62.73" xlink:href="#linear-gradient"/><linearGradient id="linear-gradient-12" x1="19.83" y1="50.08" x2="20.67" y2="50.08" xlink:href="#linear-gradient-2"/><linearGradient id="linear-gradient-13" x1="19.57" y1="21.89" x2="97.71" y2="21.89" xlink:href="#linear-gradient-2"/><linearGradient id="linear-gradient-14" x1="97.8" y1="36.72" x2="106.18" y2="36.72" xlink:href="#linear-gradient-2"/><linearGradient id="linear-gradient-15" x1="136.53" y1="51.74" x2="136.53" y2="25.39" xlink:href="#linear-gradient"/><linearGradient id="linear-gradient-16" x1="164.4" y1="51.74" x2="164.4" y2="25.39" xlink:href="#linear-gradient"/><linearGradient id="linear-gradient-17" x1="182.87" y1="51.74" x2="182.87" y2="25.39" xlink:href="#linear-gradient"/><linearGradient id="linear-gradient-18" x1="203.17" y1="51.74" x2="203.17" y2="25.35" xlink:href="#linear-gradient"/><linearGradient id="linear-gradient-19" x1="228.24" y1="51.74" x2="228.24" y2="25.39" xlink:href="#linear-gradient"/><linearGradient id="linear-gradient-20" x1="248.91" y1="51.74" x2="248.91" y2="25.35" xlink:href="#linear-gradient-2"/><linearGradient id="linear-gradient-21" x1="275.17" y1="51.74" x2="275.17" y2="25.39" xlink:href="#linear-gradient-2"/><linearGradient id="linear-gradient-22" x1="303.21" y1="51.74" x2="303.21" y2="25.39" xlink:href="#linear-gradient-2"/><linearGradient id="linear-gradient-23" x1="328.61" y1="51.74" x2="328.61" y2="25.39" xlink:href="#linear-gradient-2"/><linearGradient id="linear-gradient-24" x1="155.32" y1="62.46" x2="155.32" y2="56.7" xlink:href="#linear-gradient"/><linearGradient id="linear-gradient-25" x1="161.9" y1="62.37" x2="161.9" y2="56.8" xlink:href="#linear-gradient"/><linearGradient id="linear-gradient-26" x1="168.51" y1="62.37" x2="168.51" y2="56.8" xlink:href="#linear-gradient"/><linearGradient id="linear-gradient-27" x1="175.25" y1="62.37" x2="175.25" y2="56.8" xlink:href="#linear-gradient"/><linearGradient id="linear-gradient-28" x1="182.38" y1="62.37" x2="182.38" y2="56.8" xlink:href="#linear-gradient"/><linearGradient id="linear-gradient-29" x1="187.58" y1="62.37" x2="187.58" y2="56.8" xlink:href="#linear-gradient"/><linearGradient id="linear-gradient-30" x1="192.99" y1="62.37" x2="192.99" y2="56.8" xlink:href="#linear-gradient"/><linearGradient id="linear-gradient-31" x1="200.35" y1="62.46" x2="200.35" y2="56.7" xlink:href="#linear-gradient"/><linearGradient id="linear-gradient-32" x1="211.15" y1="62.37" x2="211.15" y2="56.8" xlink:href="#linear-gradient"/><linearGradient id="linear-gradient-33" x1="218.34" y1="62.46" x2="218.34" y2="56.7" xlink:href="#linear-gradient"/><linearGradient id="linear-gradient-34" x1="225.68" y1="62.46" x2="225.68" y2="56.8" xlink:href="#linear-gradient"/><linearGradient id="linear-gradient-35" x1="233.15" y1="62.37" x2="233.15" y2="56.8" xlink:href="#linear-gradient"/><linearGradient id="linear-gradient-36" x1="243.47" y1="62.37" x2="243.47" y2="56.8" xlink:href="#linear-gradient-2"/><linearGradient id="linear-gradient-37" x1="250.64" y1="62.46" x2="250.64" y2="56.7" xlink:href="#linear-gradient-2"/><linearGradient id="linear-gradient-38" x1="257.81" y1="62.37" x2="257.81" y2="56.8" xlink:href="#linear-gradient-2"/><linearGradient id="linear-gradient-39" x1="265.09" y1="62.37" x2="265.09" y2="56.8" xlink:href="#linear-gradient-2"/><linearGradient id="linear-gradient-40" x1="272.05" y1="62.37" x2="272.05" y2="56.8" xlink:href="#linear-gradient-2"/><linearGradient id="linear-gradient-41" x1="279.35" y1="62.37" x2="279.35" y2="56.8" xlink:href="#linear-gradient-2"/><linearGradient id="linear-gradient-42" x1="285.24" y1="62.37" x2="285.24" y2="56.8" xlink:href="#linear-gradient-2"/><linearGradient id="linear-gradient-43" x1="290.65" y1="62.46" x2="290.65" y2="56.7" xlink:href="#linear-gradient-2"/><linearGradient id="linear-gradient-44" x1="301.25" y1="62.37" x2="301.25" y2="56.8" xlink:href="#linear-gradient-2"/><linearGradient id="linear-gradient-45" x1="307.64" y1="62.37" x2="307.64" y2="56.8" xlink:href="#linear-gradient-2"/><linearGradient id="linear-gradient-46" x1="314.48" y1="62.37" x2="314.48" y2="56.8" xlink:href="#linear-gradient-2"/><linearGradient id="linear-gradient-47" x1="321.33" y1="62.37" x2="321.33" y2="56.8" xlink:href="#linear-gradient-2"/><linearGradient id="linear-gradient-48" x1="328.49" y1="62.46" x2="328.49" y2="56.8" xlink:href="#linear-gradient-2"/><linearGradient id="linear-gradient-49" x1="335.57" y1="62.37" x2="335.57" y2="56.8" xlink:href="#linear-gradient-2"/></defs><g id="Layer_2" data-name="Layer 2"><g id="Layer_1-2" data-name="Layer 1"><g class="cls-1"><path class="cls-2" d="M80.07,42.19c-.22-1.66-.52-3.32-.79-5a124.53,124.53,0,0,1-15.86,1.39q.09,6.1.17,12.17H80.83C80.72,47.88,80.44,45,80.07,42.19Z"/><path class="cls-2" d="M93.38,49.87a.73.73,0,0,0,.58-.56,11,11,0,0,1,1.25-3.11,1.47,1.47,0,0,0,.18-.89,50.89,50.89,0,0,0-1.12-6.49,50.19,50.19,0,0,0-1.51-5.14A66,66,0,0,1,80.16,37a94.46,94.46,0,0,1,1.66,13.71h8.73C91.5,50.47,92.44,50.18,93.38,49.87Z"/><path class="cls-2" d="M44.61,48.87c-.06.63-.08,1.25-.09,1.87h2.07A3.13,3.13,0,0,0,44.61,48.87Z"/><path class="cls-2" d="M62.38,38.53H57.92c.21.85.12,1-.77,1.19a11.88,11.88,0,0,0-1.33.37,1.47,1.47,0,0,0-1.07,1.26,3.87,3.87,0,0,1-.92,1.88c-.42.55-.9,1.05-1.27,1.63a2.2,2.2,0,0,1-1.4,1,4.71,4.71,0,0,0-2.4,1.29A1.54,1.54,0,0,0,48.39,49a4,4,0,0,1,.42,1.76H62.38Z"/><path class="cls-2" d="M92.38,32.76A64.54,64.54,0,0,1,80,36.05a89,89,0,0,0-4.28-14.34c1.28-.27,2.51-.5,3.73-.78a39.69,39.69,0,0,0,5.35-1.61c.27-.11.44-.15.63.13a54.37,54.37,0,0,1,7,13.12S92.37,32.65,92.38,32.76Z"/><path class="cls-2" d="M63.45,37.54c-.12-1-.12-1,.64-1.92,0,0,0-.1,0-.11a1,1,0,0,1-.74-1.28c.07-.51-.16-1.07.39-1.48.26-.19.27-.55.39-.89,1.2.13,2-.8,3.18-1.16-.39,1.45-1.91,2.32-1.84,3.9a.6.6,0,0,0,.82,0c.52-.41.9-.26,1.26.24a1.3,1.3,0,0,0,1.42.57.73.73,0,0,0,.63-1,2.37,2.37,0,0,0-.7-1.16,3.24,3.24,0,0,1-1-2.63,7.56,7.56,0,0,0-.08-1.06c-.12-1-.24-1.1-1.25-1.29a2.05,2.05,0,0,1-1.6-1.88,6.58,6.58,0,0,0-1.59-3.51c.37,0,.63-.05.88-.05,2.46,0,4.89-.3,7.33-.52.48-.05,1-.24,1.38.25.09.12.34.15.38,0,.22-.85,1-.48,1.48-.68a.94.94,0,0,1,.24,0,89.68,89.68,0,0,1,4.06,14.35A110,110,0,0,1,63.45,37.54Z"/><path class="cls-2" d="M51.42,7.59c-.32.17-.57,0-.82-.15a5.34,5.34,0,0,1-1.92-1.38l1.26-.55a5.35,5.35,0,0,0-1.33.37c-.64-.7-.41-1.56.42-2.43.35-.37.87-.52,1.16-1h0a.38.38,0,0,0,.51-.25h0A21.49,21.49,0,0,1,53.33,2c.88-.08,1.76-.08,2.64-.14a27.78,27.78,0,0,0-3.87,0c2.19-.72,4.37-1.45,6.72-.74A5.9,5.9,0,0,0,57.06.73,36.47,36.47,0,0,1,61.94.26c.27.42.18.9.36,1.32L62.37.27A18.08,18.08,0,0,1,67,.65a9.83,9.83,0,0,0-1.79.57c2.59-.85,5.08-.34,7.54.51a41.27,41.27,0,0,0-4.45,0,22.43,22.43,0,0,0,4.09.06c2.09-.26,3.71.8,5.52,1.32a8.34,8.34,0,0,1,2.44,1.09c-.56-.15-1.12-.28-1.67-.46a17.18,17.18,0,0,1-4.2-1.63A1.1,1.1,0,0,0,74,2c-.15,0-.31,0-.33.2s.11.2.24.23c.36.11.72.23,1.07.36a2,2,0,0,1,1.24,2.73l-.92-.34-1-.32c.34-.19.63.08,1,0a4.57,4.57,0,0,0-2.37-.72C72,4,71.18,3.94,70.32,3.77l.84-.09a3.16,3.16,0,0,0-1.58-.56c-.54-.1-1,.28-1.26.3C70.53,4.82,73.4,4.75,76,5.88c-.81.68-1.53,1.5-2.75,1.51-.25,0-.08.24-.25.33-.55.31-.9.27-1.42-.29l.33-.26c-.12-.09-.2-.18-.29-.2C70.61,6.81,70,6,69.15,5.6c-.29-.16-.57-.3-.67-.69a2.79,2.79,0,0,0-1.9-.69c-.29.14-.4,0-.63-.13a3.9,3.9,0,0,0-1.38-.69.85.85,0,0,0-.92.18,1.28,1.28,0,0,0,.46.6l.58.52-.87.1c-.23.36,0,1-.59,1.12.23.87.06,1.26-.63,1.4-.05-.37-.14-.68.2-1s.19-1.12.58-1.59c0-.06-.16-.31-.27-.5-.36.26-.62.19-.8-.26-.15.33-.43.36-.67.41a1,1,0,0,0-.82.59c-.11.32-.34.14-.51.2a2.79,2.79,0,0,0-1.19,2.41c.26,0,.32-.25.57-.42-.09.44-.09.74-.57.86s-.69.56-.86,1h0c-.45,0-.88.3-1.39,0,.45-.55.2-1.37.78-1.94-.75.42-1,1.45-2.08,1.39.09-.38.53-.53.61-.91a.57.57,0,0,0-.68.32,1.26,1.26,0,0,1-1.4.62,5.14,5.14,0,0,1-2.58-.79l.21-.16c.13-.08.26-.16.38-.25l.39-.23.22-.17.17-.06.46-.32.17-.07a2.67,2.67,0,0,0,.7-.44l.18-.08.23-.14c.44-.1.72-.47,1.11-.66h0v0c-.29.37-.85.25-1.14.61-.11,0-.21,0-.25.13l-.19.07a2.22,2.22,0,0,0-.71.42l-.17.06-.46.3-.17.07L52.42,7l-.4.23-.38.23ZM56.12,5l0,0V5h.14c0-.22.38,0,.35-.27.08,0,.18.07.22-.12l-.21.13c-.23-.06-.22.2-.36.26Zm2.5.85L58.49,6c-.1.07-.22.13-.09.31l.21-.22.11-.12.11-.13c.07-.08.19-.14.18-.27-.19-.08-.25,0-.27.18Zm11.65-.12c0-.12-.15-.12-.25-.13s-.14-.18-.29,0l.24.09.24.14.24.14.42.2.46.29.41.22.22.16.4.22.22.16c.15.07.26.26.48.2-.06-.21-.22-.26-.37-.31l-.22-.16c-.14-.07-.28-.14-.41-.22l-.23-.15-.42-.21-.47-.29-.42-.19C70.47,5.74,70.37,5.74,70.27,5.73ZM57.74,4.23c-.08,0-.21,0-.23.15s-.13,0,0,0c-.08.06,0,0,0,0s.22,0,.23-.14.15,0,.2-.08Zm1.66-3c0,.08.09.12.22,0l-.24,0c-.07-.11-.16-.17-.29-.05ZM69.64,2.66,72.8,3A18.2,18.2,0,0,0,69.64,2.66Zm-19.18.8v.08l1.87-.36V3.13ZM68.35,1.2a1.57,1.57,0,0,0-1.56,0A3.73,3.73,0,0,0,68.35,1.2Zm6.43,2.21.07-.08-1.43-.26,0,.08ZM70.25,2.35a1.74,1.74,0,0,0-1.35-.12Zm-16,1.7,0,.06,1.18-.3V3.76Zm-2.14.6,0,.11,1-.31,0-.08ZM50,5.39a1.21,1.21,0,0,0,.95-.34Zm8.18,1.09c-.27.07-.43.26-.63.65A.92.92,0,0,0,58.14,6.48Zm-4.7-2.11.63-.19A.72.72,0,0,0,53.44,4.37Zm-1.89.57a.13.13,0,0,0-.2,0C51.41,5,51.48,5,51.55,4.94Zm6.75-.88,0,0h-.05s0,0,0,0Zm1.55-2.61c.07,0,0,0,0,0ZM51,5.08c.08.07.13,0,.18,0S51,5,51,5.08Zm.94-.26s-.05-.06-.07-.06-.07,0-.11,0,0,.06.06.06A.34.34,0,0,0,51.92,4.82ZM58.17,6.3l0,.07,0,0s0,0,0-.08ZM57.1,4.57s0,0,0,0,0,0,0,0l0,0S57.09,4.57,57.1,4.57Z"/><path class="cls-2" d="M29.59,50.53c0,.07,0,.14,0,.21h.6Z"/><path class="cls-2" d="M22,52.66h0Z"/><path class="cls-2" d="M28.48,50.05a23,23,0,0,1-5.19-2.89,13.12,13.12,0,0,1-2-1.9,29.08,29.08,0,0,0,.22,3.47c.08.67.17,1.34.26,2H29A.66.66,0,0,0,28.48,50.05Z"/><path class="cls-2" d="M28.59,32.51a23.16,23.16,0,0,0-1.54,4.59,4.4,4.4,0,0,0,.14,2.33,10,10,0,0,1,.52,3.3,18.43,18.43,0,0,0,1.13,5.78,1.31,1.31,0,0,1,.08.78,20.14,20.14,0,0,1-7.4-4.71,1,1,0,0,1-.24-.74,39.24,39.24,0,0,1,3.25-14.53A14.13,14.13,0,0,0,28.59,32.51Z"/><path class="cls-2" d="M81,7.86c0,.3.31.28.48.38a17.3,17.3,0,0,1,4.17,2.87,5.51,5.51,0,0,1,1.24,1.75,9.41,9.41,0,0,0,1.77,2.64L89,16a17,17,0,0,1-3.93,2.22,53.21,53.21,0,0,0-5-5.49A45.64,45.64,0,0,0,74.25,8a7.82,7.82,0,0,0,2.67-1.78c.17-.19.35.06.53,0v0c.1.14.21.24.39.13h0c0,.21.14.17.26.14h0c0,.18.14.15.27.13h0a1.13,1.13,0,0,0,.9.38h0c0,.18.1.23.26.13h0c0,.18.1.23.26.14h0A2.09,2.09,0,0,0,81,7.87Z"/><path class="cls-2" d="M81.17,14.57c-.61-.3-1.19-.76-1.89-.14-.17.15-.43-.06-.64-.15l-.7-.32c.21.76.23,1.48,1,1.9A9.1,9.1,0,0,0,80.72,17a1.3,1.3,0,0,0,1.51-1.45c.86.95,1.59,1.86,2.3,2.79-.94.64-4.38,1.59-9.18,2.53l-1.81-4.08c2.09-.86,2.24-2.6,2.12-4.5a5.37,5.37,0,0,1-1.89-.39c.71-.54,1.27.33,2,0a18.54,18.54,0,0,0-2.66-3.36,1.17,1.17,0,0,1,1.53,0,46.06,46.06,0,0,1,6.63,5.92Z"/><path class="cls-2" d="M34,17.49c-.55,1.92-.3,4-1.62,5.8.44.07.45-.39.83-.47C31.56,25.66,30.4,28.66,29,31.6a13.85,13.85,0,0,1-3.86-3,.44.44,0,0,1,0-.56,42.59,42.59,0,0,1,5.11-8.18c.09-.11.17-.25.33-.27a3,3,0,0,0,2-1.67C32.92,17.32,33.21,17.22,34,17.49Z"/><path class="cls-2" d="M62.66,10c.81,0,1.54-.09,2.27-.15.26,0,.38.13.52.29a4.47,4.47,0,0,1,.9,1.76,1.26,1.26,0,0,0,.29.74c.37.09.42-.23.55-.43.48.52.46.61-.21.9,0,.5.35.59.7.69.88.26,1,.56.56,1.34-.66,1.16-.67,1.17.16,2.18a6.07,6.07,0,0,1,1.09,2.56,4.41,4.41,0,0,0,.69,1.61c-2.4.26-4.75.37-7.23.42.68-.68.73-2.18.23-4.09.27,0,.42.18.58.3a.61.61,0,0,0,1-.19,1.6,1.6,0,0,0-.63-2.51A9,9,0,0,0,63,15.07c.43-.85-.18-1.61-.23-2.44S62.7,10.93,62.66,10Z"/><path class="cls-2" d="M92.07,26.57c.83-.49,1.36-1.34,2.46-1.44a7.92,7.92,0,0,0-.94,2.28c-.13.36-.22.71.1,1s.63,0,.93-.1l.26-.14a1,1,0,0,0,.65.77,2,2,0,0,1,.94,1.72c0,.21-.19.26-.33.34a26.93,26.93,0,0,1-3,1.48A54.49,54.49,0,0,0,85.68,19a19.05,19.05,0,0,0,4.06-2.31,5.48,5.48,0,0,0,2.62,1.44.24.24,0,0,1,.13.13,6.68,6.68,0,0,0,1.24,1.91.85.85,0,0,1,.08,1c-.19.32,0,.72.11,1.09a8.44,8.44,0,0,1,.31,1.83,1,1,0,0,1-.75-1,1.58,1.58,0,0,0-.72-1.24,14.26,14.26,0,0,1-3.71-3.43c-.16-.21-.35-.64-.73-.41s-.27.63-.12,1a9,9,0,0,0,1.54,2.41,1.86,1.86,0,0,0,.82.43c.66.23.81.49.68,1.17a1.06,1.06,0,0,0,.2,1.11A2.15,2.15,0,0,1,92.07,26.57ZM89,23a3.72,3.72,0,0,0,.77,1.73c.39.59.68.22,1,0s.43-.6.13-.92a4.33,4.33,0,0,1-.83-1.36c-.2-.51-.52-.53-.88-.11A1.15,1.15,0,0,0,89,23Z"/><path class="cls-2" d="M46.53,6.86A13.17,13.17,0,0,0,44.22,8a1.48,1.48,0,0,1-1.28.19c-1.32-.45-2.13.34-2.88,1.23-.22.26-.36.66-.87.44.1-.31,0-.42-.42-.48a1.35,1.35,0,0,0-1.44.65,4.56,4.56,0,0,1-.5.48c-.35.32-.76.54-.74,1.17a.59.59,0,0,1-1,.5,1.12,1.12,0,0,0-1.22,0l-.11-.08a6,6,0,0,1,2.11-2.67A39.54,39.54,0,0,1,48.39,2.7a27.71,27.71,0,0,1,3-1c-.18.34-.62.19-.76.51h0c-.22,0-.49-.14-.51.25h0a3.65,3.65,0,0,0-2,1.16,3,3,0,0,1-1.32.74A16.07,16.07,0,0,0,45,5.05c.84-.16,1.62-.56,2.56-.7a1.9,1.9,0,0,0,.05,1.92c-.16.26-.57.16-.66.48h0c-.18-.11-.29,0-.39.13Zm-6.93.65c-.09,0-.18,0-.21.08s.16,0,.2-.09l.09-.06-.07,0Zm2.77-1.38c-.08,0-.19-.07-.21.09a.17.17,0,0,0,.2-.1l.25,0C42.47,6,42.39,6,42.37,6.13Zm-.91.34-.25.14L41,6.73l-.25.13L40.46,7l-.09.06.08,0V7c.11,0,.25.07.25-.13.11,0,.25.08.25-.13.11,0,.26.09.25-.12.12,0,.26.08.25-.14.09,0,.18.07.29-.12Zm2.67-1.12c.1.06.17,0,.24-.06C44.27,5.25,44.18,5.23,44.13,5.35Zm.6-.15c-.07-.08-.12-.06-.17,0s0,0,0,0ZM41.92,6.35l0,0s0,0,0,0l-.05,0Zm-1.73.82s0,0,0,0l0,0,.06,0Zm-.25.13,0,0,0,0,.06,0Z"/><path class="cls-2" d="M62.22,21.94H61.15c.11-.53-.17-.76-.62-.92-.65-.24-1.27-.53-1.92-.78-.91-.35-1.36-.11-1.62.85-.07.23-.14.47-.21.73-2.08-.13-4.13-.29-6.3-.62a42.37,42.37,0,0,1,4.8-3.72,3.24,3.24,0,0,1,1.34-.3,1,1,0,0,0,1-.84A9.23,9.23,0,0,1,58,15.22c.16-.44.26-.86-.4-1.09a3,3,0,0,1,3.12,1.53A.93.93,0,0,1,60.17,17a7.74,7.74,0,0,0-1.75,1c-.23.21-.48.42-.34.79s.44.34.73.33a2.27,2.27,0,0,1,1.62.57c.49.4,1,.82,1.45,1.2A.88.88,0,0,1,62.22,21.94Zm-8.39-2.46a1.06,1.06,0,0,0,1.33.43,2.24,2.24,0,0,1,1.57-.08,1,1,0,0,0-.31-1.29,1,1,0,0,0-1.22,0C54.75,18.81,54.32,19.14,53.83,19.48Z"/><path class="cls-2" d="M99.69,29.64c.46.94.78,1.87,1.38,2.86.44-1.26-.37-2-.69-2.9a1.22,1.22,0,0,1,1.15.86,47,47,0,0,1,1.73,5.64,2.07,2.07,0,0,1-.84-1.41c-.11-.5-.07-1-.53-1.44a1.41,1.41,0,0,0-.54.81,3.82,3.82,0,0,1-1.6,1.86,2.37,2.37,0,0,0-1.21,1.52.67.67,0,0,1-.92.57c-.42-.09-.71.3-.83.68a9.56,9.56,0,0,0-.8,4.18,3.72,3.72,0,0,1,0,.88,54.47,54.47,0,0,0-2.53-10.33l.65-.31a10.57,10.57,0,0,1,.78,2.14,8.79,8.79,0,0,0,.29,1.15,1.63,1.63,0,0,0,2.68.69,2.11,2.11,0,0,0,1-2.22c-.15-1.11-.24-2.23-.39-3.34a1.16,1.16,0,0,1,.57-1.3A7,7,0,0,0,99.69,29.64Z"/><path class="cls-2" d="M46.9,6.75a1.11,1.11,0,0,1,1.48.33,6.44,6.44,0,0,0,1.92,1.1c0,.26-.38.23-.35.54.4,0,.69-.71,1.15-.16A8.57,8.57,0,0,0,47.89,11c.51.2.83-.34,1.29-.12-.12.4,0,.88-.55,1.09a.29.29,0,0,0-.12.47,4,4,0,0,0,.77,1c.57.42.41.76,0,1.16L49,15a3.6,3.6,0,0,0-1.81-2.17c-.15-.07-.28-.19-.21-.34.32-.67-.14-.66-.66-.67.82-.86,1.74-1.51,2.57-2.27l.55-.42c.17-.11.41-.16.36-.47a.93.93,0,0,0-.48.32l-.59.44-1.64,1.26a8.18,8.18,0,0,1-1.09.67c-1,.54-1.45-.32-2.14-.54a.29.29,0,0,1-.13-.26,3,3,0,0,0-.34-2c.93-.48,1.8-.92,2.67-1.38.16-.09.41-.07.44-.33h0c.17.09.29,0,.39-.13Z"/><path class="cls-2" d="M23.4,25.53a4.74,4.74,0,0,0,.76,3.16.61.61,0,0,1,0,.64,40.56,40.56,0,0,0-3,11.51c-.12,1,0,1.93-.18,3A4.72,4.72,0,0,1,20,41a41.23,41.23,0,0,1,1.81-11.45A27.46,27.46,0,0,1,23.4,25.53Z"/><path class="cls-2" d="M49.86,22c2.2.3,4.36.51,6.6.64A7.1,7.1,0,0,0,56,25.15c0,.54-.34.72-.91.61a.81.81,0,0,0-.51,0,2,2,0,0,1-.06,1.8c-.27.56-.56,1.11-.86,1.7a3.25,3.25,0,0,1-.35-2c.17-.89,0-1-.88-1.07a2.24,2.24,0,0,1-1.22-.47,5.09,5.09,0,0,1-.71-.61C48.88,23.51,49.15,24,49.86,22Z"/><path class="cls-2" d="M43.48,48.71c-1,.57-1,.56-2.19.1A7.59,7.59,0,0,0,39,48.13a1.43,1.43,0,0,0-1.67,1.43c0,.39,0,.79-.06,1.18h6.26Z"/><path class="cls-2" d="M26.45,19.71c.08.2-.13.49.18.6s.45-.09.63-.22A10.28,10.28,0,0,1,30,18.42c.1,0,.18-.11.34,0-.22.48-.77.68-1,1.09,0,.3.29.22.5.32a42.92,42.92,0,0,0-5.13,8.26,4.21,4.21,0,0,1-.46-4.5,23.83,23.83,0,0,1,2.19-3.83Z"/><path class="cls-2" d="M53.14,15.09A1.3,1.3,0,0,1,53.3,14c.3-.52.58-1,.86-1.59a1.84,1.84,0,0,1,.75-.79A1.86,1.86,0,0,0,55.78,10c0-.36.12-.45.42-.39.74.14,1.53,0,2.19.62a1.25,1.25,0,0,0,1.54.07c.74-.52,1.51-.25,2.31-.33V12.7a.81.81,0,0,1-1.08-.62.55.55,0,0,0-.88-.37c-.35.18-.64.19-.7-.33,0-.31-.31-.3-.54-.28-.4,0-.71,0-.69-.62a4.27,4.27,0,0,0-2.26,3.66c-.41-.29-.35-.74-.45-1.11s0-.88-.61-.94c-.35,0-1,.65-1,1.11A2.39,2.39,0,0,1,53.14,15.09Z"/><path class="cls-2" d="M104.49,36.4c-.76-.13-1-.59-1.11-1.24s-.5-1.54-.63-2.33a15.29,15.29,0,0,1-.4-3.37c0-.09,0-.21.13-.28.51.62.59,1.45,1.06,2.1.11-1.08-.53-2-.8-2.94.07,0,.14,0,.15,0,.68,1.54,1.57,3,1.65,4.74,0,.82-.19,1.67-.07,2.52A1.25,1.25,0,0,1,104.49,36.4Z"/><path class="cls-2" d="M30.15,16.51l.2-.06.09.09a3.44,3.44,0,0,1-1.33,1.37c-.86.63-1.84,1.1-2.66,1.8h0a28.27,28.27,0,0,1,3.77-4.95C31.11,13.82,32,12.9,33,12a.24.24,0,0,1,.34-.06A1.77,1.77,0,0,1,32.77,13,14.36,14.36,0,0,0,30,16.41a.81.81,0,0,1,0,.16Z"/><path class="cls-2" d="M21.07,45.64c0-.94-.65-1.54-.93-2.33a40.85,40.85,0,0,0,1,7.43h.47A28.09,28.09,0,0,1,21.07,45.64Z"/><path class="cls-2" d="M21.91,52h0Z"/><polygon class="cls-2" points="22.04 52.65 22.04 52.65 22.04 52.66 22.04 52.65"/><path class="cls-2" d="M94.77,18.59a19.17,19.17,0,0,0-3.18-4.07l.31-.85c.28.25.72.45.76.72.2,1.2,1.47,1.57,1.91,2.57C94.79,17.46,95.15,17.93,94.77,18.59Z"/><path class="cls-2" d="M58.3,37.51a14.72,14.72,0,0,1,2.91-1.33.79.79,0,0,1,.25,1l.82-.46v.77Z"/><path class="cls-2" d="M51,13.48c.45-.08.6.56,1.07.28s.42-.61.6-.92.55-.39,1-.36a15.62,15.62,0,0,1-.93,1.62,1.69,1.69,0,0,1-1.36.53c-.27,0-.32-.25-.35-.45S51,13.73,51,13.48Z"/><path class="cls-2" d="M73.48,18.09l1.19,2.84a4.06,4.06,0,0,1-1.16.15C73.53,20.1,73.53,19.11,73.48,18.09Z"/><path class="cls-2" d="M62.26,7.07V9.36c-.52-.12-1.1.29-1.53-.38C61.76,8.75,61.58,7.63,62.26,7.07Z"/><path class="cls-2" d="M55.46,9.57c0,.18-.13.33-.34.27a2.46,2.46,0,0,0-1.39.2c-.41.11-.89.34-1.21-.37C53.54,9.55,54.47,9.15,55.46,9.57Z"/><path class="cls-2" d="M31.35,50.16c-1.17-.35-1.55-1.12-1.28-2.44Z"/><path class="cls-2" d="M61.09,22.86h1.22c-.16.34.3.84-.37.94S61.09,23.6,61.09,22.86Z"/><path class="cls-2" d="M85.9,7.52l2,1.57C86.94,9,85.94,8.22,85.9,7.52Z"/><path class="cls-2" d="M52.71,12.11a2.52,2.52,0,0,1,.61-.9.4.4,0,0,1,.56-.05c.23.18.06.38-.07.53a1.25,1.25,0,0,1-1.11.41Z"/><path class="cls-2" d="M62.74,9.23c-.13-.32,0-.67-.24-1,.48-.21.87-.36,1.3-.09-.12.31-.4.25-.6.28C62.46,8.54,62.44,8.56,62.74,9.23Z"/><path class="cls-2" d="M90.83,14a4.9,4.9,0,0,1-1.24-1.36l1.25.75C91.15,13.54,90.84,13.68,90.83,14Z"/><path class="cls-2" d="M93.05,18.06c.51.48,1.46.41,1.76,1.34C94,19.15,93.64,18.43,93.05,18.06Z"/><path class="cls-2" d="M58.26,9c.8,0,.8,0,1.17.29-.47-.14-.9.23-1.16-.3Z"/><path class="cls-2" d="M88.28,11.26a2.16,2.16,0,0,1-.69-.58l.1-.09a2.73,2.73,0,0,1,.68.59Z"/><path class="cls-2" d="M87.48,10.54l-.15-.14c.11-.05.18,0,.22.08Z"/><path class="cls-2" d="M88.37,11.18c0,.05,0,.13,0,.14s-.09,0-.11-.06Z"/><path class="cls-2" d="M33.92,12.13l-.11.06v-.14Z"/><path class="cls-2" d="M52.7,12.1v.08h0l.07-.06Z"/><path class="cls-2" d="M81.37,14.6c-.08.09-.14,0-.2,0l.07-.1a.13.13,0,0,1,.12.14Z"/><path class="cls-2" d="M81.36,14.61l.08.06-.08,0V14.6Z"/><path class="cls-2" d="M30.35,16.45l.08-.06a.76.76,0,0,1,0,.15Z"/><path class="cls-2" d="M87.59,10.68l-.11-.14.07-.06.14.11Z"/><path class="cls-2" d="M50.8,54.92h0Z"/><path class="cls-3" d="M30.15,16.51l-.13.06a.81.81,0,0,0,0-.16Z"/></g><path class="cls-4" d="M62.52,41.35c-.94-1.14-1.75-2.26-2.69-3.26a6.87,6.87,0,0,0-3.91-2.16,3.26,3.26,0,0,0-3.19,1A5.74,5.74,0,0,0,51.47,42c.85,4.39,3.14,8,5.77,11.5a1.12,1.12,0,0,1,.25.7c-.25-.16-.5-.32-.74-.49A58,58,0,0,1,46,44.07c-4.92-5.85-7.84-12.44-7.17-20.27A29.48,29.48,0,0,1,42.58,12c-.08.65-.16,1.31-.23,2a13.19,13.19,0,0,0,2.89,10.42,1,1,0,0,1,0,.82,18.59,18.59,0,0,0,.09,13.59,2.69,2.69,0,0,0,.32.4c-.59-4.61-.92-9,1.6-13.12,4.88,2.21,9.54,4.62,12.82,9A11.69,11.69,0,0,1,62.52,41.35Z"/><path class="cls-5" d="M53.42,59.57l0,.18-.12-.1A.3.3,0,0,1,53.42,59.57Z"/><path class="cls-6" d="M49.61,19l.19.38v0L49.63,19Z"/><path class="cls-6" d="M50,19.55l-.2-.2v0l.19.19Z"/><path class="cls-6" d="M49.44,18.79l-.15-.07.13.08Z"/><path class="cls-6" d="M49.42,18.8l.19.19h0l-.19-.19Z"/><path class="cls-7" d="M49.71,20l-2.93-3.9a18.57,18.57,0,0,0-1.83,4c-.57,2.59,1.63,5.07,4.39,5.33a5.44,5.44,0,0,0,5.36-4.48Z"/><path class="cls-8" d="M55.27,23.59c.07-1,0-2.05,0-3.14l4.43.66L54.4,14.46a2.84,2.84,0,0,0-.56-.63A2.22,2.22,0,0,0,53,13.5c-1.46-.25-2.92-.48-4.39-.71l-4.44-.66L47,15.66h0l3,3.87.36.08,4.56.75v5.72l.35,0C55.68,25.33,55.22,24.43,55.27,23.59Z"/><path class="cls-9" d="M63.23,41.5c.93-1.14,1.75-2.26,2.69-3.26a6.73,6.73,0,0,1,3.91-2.16,3.26,3.26,0,0,1,3.19,1,5.73,5.73,0,0,1,1.25,5.06c-.85,4.39-3.13,8-5.77,11.5a1.07,1.07,0,0,0-.24.7l.73-.49a57.42,57.42,0,0,0,10.75-9.66c4.93-5.84,7.85-12.43,7.18-20.27a29.6,29.6,0,0,0-3.76-11.81l.24,2a13.26,13.26,0,0,1-2.9,10.43,1,1,0,0,0,0,.82,18.51,18.51,0,0,1-.09,13.58c0,.09-.11.15-.32.41.59-4.61.93-9-1.59-13.13-4.88,2.22-9.54,4.63-12.83,9A11.68,11.68,0,0,0,63.23,41.5Z"/><path class="cls-5" d="M72.32,59.71l0,.18.12-.09Z"/><path class="cls-6" d="M76.13,19.14l-.19.37h0l.19-.38Z"/><path class="cls-6" d="M75.74,19.69l.19-.19h0l-.19.19Z"/><path class="cls-6" d="M76.31,18.93l.15-.06-.14.08Z"/><path class="cls-6" d="M76.32,19l-.19.19v0l.19-.19Z"/><path class="cls-10" d="M76,20.1,79,16.2a17.65,17.65,0,0,1,1.83,4c.58,2.59-1.62,5.07-4.38,5.33a5.44,5.44,0,0,1-5.36-4.48Z"/><path class="cls-11" d="M70.47,23.74c-.06-1,0-2,0-3.14L66,21.25l5.32-6.64a3.14,3.14,0,0,1,.56-.64,2.24,2.24,0,0,1,.85-.32c1.46-.25,2.92-.48,4.38-.71s2.81-.42,4.44-.66L78.77,15.8h0l-3,3.87-.37.08-4.55.76v5.72l-.35,0C70.06,25.48,70.53,24.57,70.47,23.74Z"/><path class="cls-12" d="M62.83,68.19c-3.15-4.55-7.81-5.63-12.59-6.35-6.86-1-13.75-.6-20.63-.15a71,71,0,0,1-8.42.18L30,54l.35.32-4.17,5.17,6.29-.87c6.32-.89,12.63-1.87,19-1.43,4.23.3,8.29,1.07,11.26,4.57C66.38,57.72,71.18,57,76,57.2c6.41.26,12.79,1.13,19.18,1.76,1.3.12,2.59.33,4.25.54l-4.75-5.83.24-.25L104.55,62c-1.48,0-2.72.06-4,0-7.44-.43-14.88-1.21-22.34-.45A52.58,52.58,0,0,0,71,62.77C67.72,63.58,64.8,65.06,62.83,68.19Z"/><path class="cls-13" d="M88.54,56.61c-3.12-.25-6.24-.61-9.36-.72a58.19,58.19,0,0,0-7.23.28,16.55,16.55,0,0,0-8.39,3.07A9.81,9.81,0,0,1,70,55c5.34-1.26,10.62-.53,15.87.58.92.19,1.81.47,2.72.7Z"/><path class="cls-14" d="M35.65,56.49c5.61-1.31,10.79-2.35,16.13-2a15.15,15.15,0,0,1,8.13,2.48,6.6,6.6,0,0,1,1.68,1.84C57,55.86,51.9,55.71,46.8,55.86c-3.21.1-6.42.59-9.64.87A7,7,0,0,1,35.65,56.49Z"/><path class="cls-15" d="M35.78,63.12c6-.43,12-.61,17.85,1a12.48,12.48,0,0,1,6.95,4.25C52.92,63.73,44.29,63.69,35.78,63.12Z"/><path class="cls-16" d="M90,63.19c-8.44.44-16.93.58-24.64,4.86C68.24,64.91,72,63.69,76,63.34c4.64-.41,9.32-.43,14-.61Z"/><path class="cls-17" d="M109.19,17.51l.89,2.66-8.19-6.61L107,15.09l1.45-2.8,1,2.4L113.06,13,102.12,5.55a7.47,7.47,0,0,1,2.27,0c4.24,1.44,8.43,3,12.68,4.43a4.41,4.41,0,0,0,2.68-.17c1.51-.51,2.92-1.3,4.39-1.92A3.83,3.83,0,0,1,126,7.41a17.26,17.26,0,0,1,2.81.89A10.9,10.9,0,0,1,127,10.22c-1.75,1.15-4.34,1.74-5.2,3.32s-.06,4.1,0,6.21a13.75,13.75,0,0,1,.07,1.92,3.74,3.74,0,0,1-.49,1.06c-.35-.19-.84-.29-1-.59-1.1-1.72-2.19-3.46-3.15-5.26a1.7,1.7,0,0,0-2.42-1C113,16.5,111.12,17,109.19,17.51Z"/><g class="cls-18"><path class="cls-19" d="M20.41,47.62l-.58.11a39,39,0,0,0,.84,4.81C20.5,50.88,20.42,49.24,20.41,47.62Z"/><path class="cls-20" d="M94.6,18.9l3.11-1.3A43.28,43.28,0,0,0,19.57,43.78l1-.22A41.13,41.13,0,0,1,31,19.06,41.11,41.11,0,0,1,63,4.61,42.3,42.3,0,0,1,94.6,18.9Z"/><path class="cls-21" d="M97.8,23a43,43,0,0,1,7.31,28.51c2.1-7.27,1.36-19-4.59-29.53Z"/></g><path class="cls-17" d="M89.19,25.38q8.1-3,16.93-6.35L103,16.49c-4.86,2.1-9.55,4-14.1,5.87C89,23.36,89.11,24.37,89.19,25.38Z"/><path class="cls-17" d="M39.83,39.48c-4.7,1.37-9.06,2.58-13,3.61-9,2.35-19.68,4.86-22,1-3.05-5,9.63-18.12,17.63-25.76Q-2.89,39.58.37,45.8q3.54,6.74,40.44-4.09a5.53,5.53,0,0,1-.24-.72A7.55,7.55,0,0,1,39.83,39.48Z"/><path class="cls-22" d="M125.06,25.39h9.76a13.18,13.18,0,1,1,0,26.35h-9.76Zm6.88,19.53h2.92a6.24,6.24,0,1,0,0-12.47h-2.92Z"/><path class="cls-23" d="M168.06,51.74l-4.08-7H159.7v7h-6.92V25.39h11.1a9.67,9.67,0,0,1,6.57,16.79L176,51.74Zm-8.36-13H164a3.78,3.78,0,1,0,0-7.55H159.7Z"/><path class="cls-24" d="M179.41,25.39h6.92V51.74h-6.92Z"/><path class="cls-25" d="M217,25.35,204.77,51.74h-3.16l-12.3-26.39h7l6.92,15,6.95-15Z"/><path class="cls-26" d="M220.05,25.39h16.37v5.73H227V35.4h8.36v5.83H227v4.85h9.45v5.66H220.05Z"/><path class="cls-27" d="M238.53,25.35h20.76v6.89h-7v19.5h-6.92V32.24h-6.85Z"/><path class="cls-28" d="M271,25.39v9.38h8.36V25.39h6.92V51.74h-6.92V41.69H271V51.74h-6.92V25.39Z"/><path class="cls-29" d="M306.86,51.74l-4.07-7H298.5v7h-6.92V25.39h11.1a9.67,9.67,0,0,1,6.57,16.79l5.59,9.56Zm-8.36-13h4.29a3.78,3.78,0,1,0,0-7.55H298.5Z"/><path class="cls-30" d="M325.17,41.23a3.44,3.44,0,1,0,6.88,0V25.39h7v16a10.4,10.4,0,1,1-20.8,0v-16h7Z"/><path class="cls-31" d="M156.75,59.29a5.57,5.57,0,0,0-1.22-.4,3,3,0,0,1-1-.37.45.45,0,0,1-.17-.34.42.42,0,0,1,.18-.35,1.33,1.33,0,0,1,.77-.2,1.18,1.18,0,0,1,.71.19,1,1,0,0,1,.31.62l1.12,0a1.62,1.62,0,0,0-.55-1.23,2.4,2.4,0,0,0-1.58-.46,2.81,2.81,0,0,0-1.1.2,1.48,1.48,0,0,0-.69.56,1.44,1.44,0,0,0-.24.8,1.46,1.46,0,0,0,.51,1.12,3.17,3.17,0,0,0,1.27.55,9,9,0,0,1,.9.24.91.91,0,0,1,.4.24.5.5,0,0,1,.12.34.66.66,0,0,1-.28.53,1.19,1.19,0,0,1-.81.23,1.22,1.22,0,0,1-.82-.25,1.41,1.41,0,0,1-.4-.81l-1.09.1a2.11,2.11,0,0,0,.67,1.43,2.45,2.45,0,0,0,1.62.48,3.12,3.12,0,0,0,1.22-.2,1.58,1.58,0,0,0,.75-.62,1.71,1.71,0,0,0,.26-.9,1.62,1.62,0,0,0-.22-.88A1.6,1.6,0,0,0,156.75,59.29Z"/><polygon class="cls-32" points="159.69 57.74 161.34 57.74 161.34 62.37 162.46 62.37 162.46 57.74 164.11 57.74 164.11 56.8 159.69 56.8 159.69 57.74"/><polygon class="cls-33" points="167.51 59.91 170.31 59.91 170.31 58.97 167.51 58.97 167.51 57.74 170.52 57.74 170.52 56.8 166.39 56.8 166.39 62.37 170.63 62.37 170.63 61.43 167.51 61.43 167.51 59.91"/><polygon class="cls-34" points="174.26 59.91 177.05 59.91 177.05 58.97 174.26 58.97 174.26 57.74 177.26 57.74 177.26 56.8 173.13 56.8 173.13 62.37 177.37 62.37 177.37 61.43 174.26 61.43 174.26 59.91"/><path class="cls-35" d="M183.57,60.37a2.78,2.78,0,0,0-.61-.46,1.76,1.76,0,0,0,1.11-.52,1.49,1.49,0,0,0,.36-1,1.64,1.64,0,0,0-.24-.88,1.3,1.3,0,0,0-.65-.53,4,4,0,0,0-1.29-.15h-2.37v5.57H181V60h.22a2,2,0,0,1,.57.06.93.93,0,0,1,.34.24,8.88,8.88,0,0,1,.59.81l.81,1.22h1.35l-.68-1.09A7.75,7.75,0,0,0,183.57,60.37Zm-1.73-1.22H181V57.74h.87c.46,0,.73,0,.82,0a.66.66,0,0,1,.43.22.64.64,0,0,1,.15.45.7.7,0,0,1-.12.42.56.56,0,0,1-.31.23A4,4,0,0,1,181.84,59.15Z"/><rect class="cls-36" x="187.02" y="56.8" width="1.12" height="5.57"/><polygon class="cls-37" points="194.15 60.52 191.87 56.8 190.78 56.8 190.78 62.37 191.82 62.37 191.82 58.73 194.07 62.37 195.19 62.37 195.19 56.8 194.15 56.8 194.15 60.52"/><path class="cls-38" d="M200.53,60.32h1.29V61a2.24,2.24,0,0,1-.61.34,2,2,0,0,1-.71.14,1.49,1.49,0,0,1-1.16-.5,2.18,2.18,0,0,1-.44-1.48,2,2,0,0,1,.44-1.39,1.53,1.53,0,0,1,1.17-.47,1.34,1.34,0,0,1,.81.24,1.15,1.15,0,0,1,.44.65l1.12-.21a2,2,0,0,0-.75-1.2,2.66,2.66,0,0,0-1.62-.44,2.91,2.91,0,0,0-1.33.28,2.45,2.45,0,0,0-1.07,1,3.21,3.21,0,0,0-.36,1.54,3.38,3.38,0,0,0,.32,1.49,2.3,2.3,0,0,0,1,1,3,3,0,0,0,1.52.37,3.82,3.82,0,0,0,1.36-.26,2.86,2.86,0,0,0,1-.6V59.38h-2.42Z"/><polygon class="cls-39" points="211.17 59 209.86 56.8 208.54 56.8 210.58 60.02 210.58 62.37 211.7 62.37 211.7 60.03 213.75 56.8 212.45 56.8 211.17 59"/><path class="cls-40" d="M218.33,56.7a3.13,3.13,0,0,0-1.2.22,2.28,2.28,0,0,0-.72.5,2.68,2.68,0,0,0-.52.77,3.52,3.52,0,0,0-.25,1.43,2.85,2.85,0,0,0,.73,2.08,2.92,2.92,0,0,0,3.93,0,3.39,3.39,0,0,0,0-4.23A2.63,2.63,0,0,0,218.33,56.7ZM219.44,61a1.37,1.37,0,0,1-1.1.49,1.41,1.41,0,0,1-1.11-.49,2.07,2.07,0,0,1-.44-1.43,2.13,2.13,0,0,1,.43-1.44,1.55,1.55,0,0,1,2.23,0,2.65,2.65,0,0,1,0,2.88Z"/><path class="cls-41" d="M226.78,59.88a6.57,6.57,0,0,1-.05.94.78.78,0,0,1-.3.48,1.12,1.12,0,0,1-.72.2,1.18,1.18,0,0,1-.74-.21.87.87,0,0,1-.34-.55,6,6,0,0,1,0-.93v-3h-1.13v3a7,7,0,0,0,.11,1.41,1.54,1.54,0,0,0,.32.62,1.84,1.84,0,0,0,.65.48,3.14,3.14,0,0,0,1.21.18,2.92,2.92,0,0,0,1.07-.17,1.64,1.64,0,0,0,.65-.45,1.53,1.53,0,0,0,.34-.7,7.67,7.67,0,0,0,.09-1.42V56.8h-1.12Z"/><path class="cls-42" d="M235,61.28a6.7,6.7,0,0,0-.64-.91,3,3,0,0,0-.6-.46,1.73,1.73,0,0,0,1.1-.52,1.45,1.45,0,0,0,.37-1,1.64,1.64,0,0,0-.24-.88,1.34,1.34,0,0,0-.65-.53,4.05,4.05,0,0,0-1.3-.15h-2.37v5.57h1.13V60H232a1.93,1.93,0,0,1,.56.06.93.93,0,0,1,.34.24,7.23,7.23,0,0,1,.59.81l.82,1.22h1.34Zm-2.37-2.13h-.83V57.74h.88c.45,0,.73,0,.82,0a.66.66,0,0,1,.42.22.64.64,0,0,1,.15.45.77.77,0,0,1-.11.42.58.58,0,0,1-.32.23A4,4,0,0,1,232.6,59.15Z"/><path class="cls-43" d="M242.84,56.8l-2.16,5.57h1.19l.46-1.27h2.22l.49,1.27h1.22L244,56.8Zm-.17,3.36.75-2.06.77,2.06Z"/><path class="cls-44" d="M251.51,61.21a1.12,1.12,0,0,1-.77.29,1.25,1.25,0,0,1-1-.45,2.35,2.35,0,0,1-.38-1.5,2.14,2.14,0,0,1,.39-1.44,1.33,1.33,0,0,1,1.77-.2,1.22,1.22,0,0,1,.41.69l1.11-.27a2.22,2.22,0,0,0-.57-1,2.28,2.28,0,0,0-1.66-.61,2.48,2.48,0,0,0-1.89.77,3.07,3.07,0,0,0-.71,2.16,2.86,2.86,0,0,0,.71,2.07,2.38,2.38,0,0,0,1.82.76,2.41,2.41,0,0,0,1.48-.44,2.49,2.49,0,0,0,.84-1.36L252,60.32A1.64,1.64,0,0,1,251.51,61.21Z"/><path class="cls-45" d="M257.19,56.8,255,62.37h1.19l.46-1.27h2.23l.48,1.27h1.23l-2.23-5.57ZM257,60.16l.75-2.06.77,2.06Z"/><path class="cls-46" d="M266.71,57.42a1.84,1.84,0,0,0-.84-.52,4.11,4.11,0,0,0-1.06-.1h-2.06v5.57h2.12a3.25,3.25,0,0,0,1-.12,2,2,0,0,0,.8-.45,2.57,2.57,0,0,0,.59-1,3.52,3.52,0,0,0,.17-1.19,4.1,4.1,0,0,0-.18-1.31A2.36,2.36,0,0,0,266.71,57.42Zm-.56,3.18a1.24,1.24,0,0,1-.3.54,1,1,0,0,1-.45.23,2.75,2.75,0,0,1-.68.06h-.84V57.74h.5a5.93,5.93,0,0,1,.93,0,1.22,1.22,0,0,1,.52.26,1.41,1.41,0,0,1,.32.54,3.58,3.58,0,0,1,.11,1A3.77,3.77,0,0,1,266.15,60.6Z"/><polygon class="cls-47" points="271.06 59.91 273.85 59.91 273.85 58.97 271.06 58.97 271.06 57.74 274.06 57.74 274.06 56.8 269.93 56.8 269.93 62.37 274.17 62.37 274.17 61.43 271.06 61.43 271.06 59.91"/><polygon class="cls-48" points="279.35 60.59 278.34 56.8 276.66 56.8 276.66 62.37 277.7 62.37 277.7 57.98 278.81 62.37 279.89 62.37 280.99 57.98 280.99 62.37 282.04 62.37 282.04 56.8 280.35 56.8 279.35 60.59"/><rect class="cls-49" x="284.67" y="56.8" width="1.12" height="5.57"/><path class="cls-50" d="M291.52,61.21a1.12,1.12,0,0,1-.77.29,1.22,1.22,0,0,1-1-.45,2.29,2.29,0,0,1-.38-1.5,2.14,2.14,0,0,1,.38-1.44,1.26,1.26,0,0,1,1-.45,1.14,1.14,0,0,1,1.17.94l1.11-.27a2.06,2.06,0,0,0-.57-1,2.28,2.28,0,0,0-1.66-.61,2.44,2.44,0,0,0-1.88.77,3,3,0,0,0-.72,2.16,2.9,2.9,0,0,0,.71,2.07,2.62,2.62,0,0,0,3.3.32,2.49,2.49,0,0,0,.84-1.36L292,60.32A1.64,1.64,0,0,1,291.52,61.21Z"/><path class="cls-51" d="M300.63,56.8l-2.17,5.57h1.19l.46-1.27h2.23l.48,1.27h1.23l-2.23-5.57Zm-.17,3.36.75-2.06.77,2.06Z"/><polygon class="cls-52" points="307.68 60.92 306.27 56.8 305.05 56.8 307.04 62.37 308.24 62.37 310.24 56.8 309.04 56.8 307.68 60.92"/><polygon class="cls-53" points="313.49 59.91 316.28 59.91 316.28 58.97 313.49 58.97 313.49 57.74 316.49 57.74 316.49 56.8 312.36 56.8 312.36 62.37 316.6 62.37 316.6 61.43 313.49 61.43 313.49 59.91"/><polygon class="cls-54" points="322.49 60.52 320.21 56.8 319.12 56.8 319.12 62.37 320.16 62.37 320.16 58.73 322.41 62.37 323.54 62.37 323.54 56.8 322.49 56.8 322.49 60.52"/><path class="cls-55" d="M329.59,59.88a6.57,6.57,0,0,1,0,.94.76.76,0,0,1-.29.48,1.42,1.42,0,0,1-1.47,0,.91.91,0,0,1-.34-.55,6,6,0,0,1,0-.93v-3h-1.13v3a7,7,0,0,0,.11,1.41,1.54,1.54,0,0,0,.32.62,1.84,1.84,0,0,0,.65.48,3.14,3.14,0,0,0,1.21.18,2.89,2.89,0,0,0,1.07-.17,1.64,1.64,0,0,0,.65-.45,1.53,1.53,0,0,0,.34-.7,7.67,7.67,0,0,0,.09-1.42V56.8h-1.12Z"/><polygon class="cls-56" points="334.58 61.43 334.58 59.91 337.37 59.91 337.37 58.97 334.58 58.97 334.58 57.74 337.58 57.74 337.58 56.8 333.45 56.8 333.45 62.37 337.69 62.37 337.69 61.43 334.58 61.43"/></g></g></svg>